<?xml version="1.0" encoding="utf-8"?>
<!-- Generator: Adobe Illustrator 21.1.0, SVG Export Plug-In . SVG Version: 6.00 Build 0)  -->
<svg version="1.1" id="Layer_1" xmlns="http://www.w3.org/2000/svg" xmlns:xlink="http://www.w3.org/1999/xlink" x="0px" y="0px"
	 viewBox="0 0 190.5 170.5" style="enable-background:new 0 0 190.5 170.5;" xml:space="preserve">
<style type="text/css">
	.st0{fill:none;}
</style>
<g>
	<rect x="60.2" y="100.3" width="10" height="10"/>
	<rect x="60.2" y="110.3" width="10" height="10"/>
	<rect x="60.2" y="80.2" width="10" height="10"/>
	<rect x="60.2" y="90.3" width="10" height="10"/>
	<rect x="60.2" y="60.2" width="10" height="10"/>
	<rect x="60.2" y="70.2" width="10" height="10"/>
	<rect x="60.2" y="40.1" class="st0" width="10" height="10"/>
	<rect x="60.2" y="50.1" width="10" height="10"/>
	<rect x="60.2" y="120.3" width="10" height="10"/>
	<rect x="50.1" y="100.3" width="10" height="10"/>
	<rect x="50.1" y="110.3" width="10" height="10"/>
	<rect x="50.1" y="80.2" width="10" height="10"/>
	<rect x="50.1" y="90.3" width="10" height="10"/>
	<rect x="50.1" y="60.2" width="10" height="10"/>
	<rect x="50.1" y="70.2" width="10" height="10"/>
	<rect x="50.1" y="40.1" width="10" height="10"/>
	<rect x="50.1" y="50.1" class="st0" width="10" height="10"/>
	<rect x="50.1" y="120.3" width="10" height="10"/>
	<rect x="40.1" y="100.3" width="10" height="10"/>
	<rect x="40.1" y="110.3" width="10" height="10"/>
	<rect x="40.1" y="80.2" width="10" height="10"/>
	<rect x="40.1" y="90.3" width="10" height="10"/>
	<rect x="40.1" y="60.2" width="10" height="10"/>
	<rect x="40.1" y="70.2" width="10" height="10"/>
	<rect x="40.1" y="40.1" width="10" height="10"/>
	<rect x="40.1" y="50.1" class="st0" width="10" height="10"/>
	<rect x="40.1" y="120.3" width="10" height="10"/>
	<rect x="30.1" y="100.3" width="10" height="10"/>
	<rect x="30.1" y="110.3" width="10" height="10"/>
	<rect x="30.1" y="80.2" width="10" height="10"/>
	<rect x="30.1" y="90.3" width="10" height="10"/>
	<rect x="30.1" y="60.2" width="10" height="10"/>
	<rect x="30.1" y="70.2" width="10" height="10"/>
	<rect x="30.1" y="40.1" width="10" height="10"/>
	<rect x="30.1" y="50.1" class="st0" width="10" height="10"/>
	<rect x="30.1" y="120.3" width="10" height="10"/>
	<rect x="20.1" y="100.3" width="10" height="10"/>
	<rect x="20.1" y="110.3" width="10" height="10"/>
	<rect x="20.1" y="80.2" width="10" height="10"/>
	<rect x="20.1" y="90.3" width="10" height="10"/>
	<rect x="20.1" y="60.2" width="10" height="10"/>
	<rect x="20.1" y="70.2" width="10" height="10"/>
	<rect x="20.1" y="40.1" width="10" height="10"/>
	<rect x="20.1" y="50.1" class="st0" width="10" height="10"/>
	<rect x="20.1" y="120.3" width="10" height="10"/>
	<rect x="10" y="100.3" width="10" height="10"/>
	<rect x="10" y="110.3" width="10" height="10"/>
	<rect x="10" y="80.2" width="10" height="10"/>
	<rect x="10" y="90.3" width="10" height="10"/>
	<rect x="10" y="60.2" width="10" height="10"/>
	<rect x="10" y="70.2" width="10" height="10"/>
	<rect x="10" y="40.1" width="10" height="10"/>
	<rect x="10" y="50.1" width="10" height="10"/>
	<rect x="10" y="120.3" width="10" height="10"/>
	<rect y="100.3" width="10" height="10"/>
	<rect y="110.3" width="10" height="10"/>
	<rect y="80.2" width="10" height="10"/>
	<rect y="90.3" width="10" height="10"/>
	<rect y="60.2" width="10" height="10"/>
	<rect y="70.2" width="10" height="10"/>
	<rect y="40.1" width="10" height="10"/>
	<rect y="50.1" width="10" height="10"/>
	<rect y="120.3" width="10" height="10"/>
	<rect x="60.2" y="30.1" width="10" height="10"/>
	<rect x="70.2" y="20.1" width="10" height="10"/>
	<rect x="80.2" y="10" width="10" height="10"/>
	<rect x="90.3" width="10" height="10"/>
	<rect x="90.3" y="10" width="10" height="10"/>
	<rect x="90.3" y="20.1" width="10" height="10"/>
	<rect x="90.3" y="90.3" width="10" height="10"/>
	<rect x="90.3" y="100.3" width="10" height="10"/>
	<rect x="90.3" y="70.2" width="10" height="10"/>
	<rect x="90.3" y="80.2" width="10" height="10"/>
	<rect x="90.3" y="50.1" width="10" height="10"/>
	<rect x="90.3" y="60.2" width="10" height="10"/>
	<rect x="90.3" y="30.1" width="10" height="10"/>
	<rect x="90.3" y="40.1" width="10" height="10"/>
	<rect x="90.3" y="110.3" width="10" height="10"/>
	<rect x="90.3" y="140.4" width="10" height="10"/>
	<rect x="90.3" y="120.3" width="10" height="10"/>
	<rect x="90.3" y="130.4" width="10" height="10"/>
	<rect x="60.2" y="130.4" width="10" height="10"/>
	<rect x="70.2" y="140.4" width="10" height="10"/>
	<rect x="80.2" y="150.4" width="10" height="10"/>
	<rect x="90.3" y="160.4" width="10" height="10"/>
	<rect x="90.3" y="150.4" width="10" height="10"/>
	<rect x="80.2" y="120.3" width="10" height="10"/>
	<rect x="80.2" y="130.4" width="10" height="10"/>
	<rect x="80.2" y="100.3" width="10" height="10"/>
	<rect x="80.2" y="110.3" width="10" height="10"/>
	<rect x="80.2" y="80.2" width="10" height="10"/>
	<rect x="80.2" y="90.3" width="10" height="10"/>
	<rect x="80.2" y="60.2" width="10" height="10"/>
	<rect x="80.2" y="70.2" width="10" height="10"/>
	<rect x="80.2" y="140.4" width="10" height="10"/>
	<rect x="70.2" y="110.3" width="10" height="10"/>
	<rect x="70.2" y="120.3" width="10" height="10"/>
	<rect x="70.2" y="90.3" width="10" height="10"/>
	<rect x="70.2" y="100.3" width="10" height="10"/>
	<rect x="70.2" y="70.2" width="10" height="10"/>
	<rect x="70.2" y="80.2" width="10" height="10"/>
	<rect x="70.2" y="50.1" width="10" height="10"/>
	<rect x="70.2" y="60.2" width="10" height="10"/>
	<rect x="70.2" y="130.4" width="10" height="10"/>
	<rect x="70.2" y="50.1" width="10" height="10"/>
	<rect x="70.2" y="30.1" class="st0" width="10" height="10"/>
	<rect x="70.2" y="40.1" width="10" height="10"/>
	<rect x="60.2" y="50.1" width="10" height="10"/>
	<rect x="60.2" y="30.1" width="10" height="10"/>
	<rect x="60.2" y="40.1" class="st0" width="10" height="10"/>
	<rect x="80.2" y="40.1" width="10" height="10"/>
	<rect x="80.2" y="50.1" width="10" height="10"/>
	<rect x="80.2" y="20.1" width="10" height="10"/>
	<rect x="80.2" y="30.1" width="10" height="10"/>
	<rect x="120.3" y="85.2" width="10" height="10"/>
	<rect x="120.3" y="95.3" width="10" height="10"/>
	<rect x="120.3" y="65.2" width="10" height="10"/>
	<rect x="120.3" y="75.2" width="10" height="10"/>
	<rect x="150.4" y="105.3" width="10" height="10"/>
	<rect x="110.3" y="105.3" width="10" height="10"/>
	<rect x="110.3" y="55.2" width="10" height="10"/>
	<rect x="150.4" y="55.1" width="10" height="10"/>
	<rect x="150.4" y="85.2" width="10" height="10"/>
	<rect x="150.4" y="95.3" width="10" height="10"/>
	<rect x="150.4" y="65.2" width="10" height="10"/>
	<rect x="150.4" y="75.2" width="10" height="10"/>
	<rect x="140.4" y="45.1" width="10" height="10"/>
	<rect x="130.4" y="35.1" width="10" height="10"/>
	<rect x="140.4" y="115.3" width="10" height="10"/>
	<rect x="130.4" y="125.3" width="10" height="10"/>
	<rect x="180.5" y="105.3" width="10" height="10"/>
	<rect x="180.5" y="55.2" width="10" height="10"/>
	<rect x="180.5" y="85.2" width="10" height="10"/>
	<rect x="180.5" y="95.3" width="10" height="10"/>
	<rect x="180.5" y="65.2" width="10" height="10"/>
	<rect x="180.5" y="75.2" width="10" height="10"/>
	<rect x="170.5" y="35.1" width="10" height="10"/>
	<rect x="170.5" y="45.2" width="10" height="10"/>
	<rect x="170.5" y="115.3" width="10" height="10"/>
	<rect x="170.5" y="125.3" width="10" height="10"/>
	<rect x="160.4" y="25.1" width="10" height="10"/>
	<rect x="160.4" y="135.4" width="10" height="10"/>
</g>
</svg>
