<?xml version="1.0" encoding="utf-8"?>
<!-- Generator: Adobe Illustrator 21.1.0, SVG Export Plug-In . SVG Version: 6.00 Build 0)  -->
<svg version="1.1" id="Layer_1" xmlns="http://www.w3.org/2000/svg" xmlns:xlink="http://www.w3.org/1999/xlink" x="0px" y="0px"
	 viewBox="0 0 2000 339" style="enable-background:new 0 0 2000 339;" xml:space="preserve">
<style type="text/css">
	.st0{fill:#FFFFFF;}
</style>
<g>
	<path class="st0" d="M1,7c2.1,0.1,4.3,0.4,6.4,0.4c51.3,0,102.6,0.1,154-0.1c4.3,0,7,1.3,9.6,4.7c60.8,78.1,121.7,156,182.6,234
		c1.4,1.8,2.8,3.5,5.3,4.9c0-80.8,0-161.7,0-243c32.1,0,63.6,0,95.5,0c0,108.8,0,217.5,0,326.8c-1.9,0-3.7,0-5.4,0
		c-50.7,0-101.3-0.1-152,0.1c-3.8,0-6-1.4-8.2-4.2C226.6,251,164.4,171.5,102.3,92c-1.4-1.8-2.8-3.5-5.4-4.8c0,82.3,0,164.7,0,247.6
		c-2.4,0-4.2,0-6,0c-28,0-56,0-84,0c-2,0-4,0.2-6,0.2C1,225.7,1,116.3,1,7z"/>
	<path class="st0" d="M704.3,338.8c-32.2,0-64.3,0.2-96.5-0.1c-18.8-0.2-37.5-1.7-55.8-6.8c-30.9-8.6-52.1-32.8-55.8-64.6
		c-1.2-10.4-2-20.9-2-31.4c-0.2-47.2-0.2-94.3,0.2-141.5c0.1-9.7,1.2-19.7,3.5-29.2c7.7-32.8,29.5-51.5,61.7-57.7
		c17.5-3.4,35.6-5,53.5-5.1C674.2,1.8,735.4,2,796.5,2.2c21.2,0.1,42.3,1.2,62.7,7.5c32.2,10,52.2,35.2,54.6,68.9
		c0.9,12.3,1.4,24.6,1.4,36.9c0,45.2,0,90.3-0.5,135.5c-0.1,8.6-1.4,17.3-3.4,25.7c-7.5,30.5-27.8,48.3-57.6,56.1
		c-17.3,4.5-35.1,5.7-53,5.9C768.6,339,736.4,338.8,704.3,338.8z M704.5,256.2v0.1c27.3,0,54.6,0.1,82-0.1c6.6,0,13.3-0.4,19.9-1.2
		c10.6-1.3,16.4-7.3,17.8-17.8c0.5-3.8,1-7.6,1-11.4c0.1-37,0.1-74,0-110.9c0-4-0.5-8-1-11.9c-1.4-9.7-7.2-15.6-16.8-17.2
		c-4.1-0.7-8.3-1.1-12.4-1.1c-55.8-0.1-111.6-0.2-167.4-0.2c-8.3,0-16.6,0.4-24.9,1.3c-9.7,1.1-15.3,6.4-17.2,16
		c-1,5-1.4,10.2-1.4,15.4c-0.1,35.5-0.1,71,0,106.5c0,4.5,0.4,9,1,13.4c1.5,10.7,7.4,16.5,18.2,18c3.9,0.5,7.9,1,11.9,1
		C644.9,256.3,674.7,256.2,704.5,256.2z"/>
	<path class="st0" d="M2000.1,334.7c-23.2,0-45.5,0-67.8,0c-14.2,0-28.3-0.2-42.5,0.1c-4.2,0.1-6.1-1.4-7.9-5
		c-8.2-16.2-16.8-32.2-25-48.3c-1.5-2.9-3.2-4-6.5-4c-62.2,0.1-124.3,0.1-186.5,0c-3.3,0-5,1.1-6.5,4c-8.3,16.5-16.9,32.8-25.3,49.3
		c-1.2,2.4-2.4,3.9-5.5,3.9c-34.5-0.1-69-0.1-103.5-0.1c-0.8,0-1.6-0.1-3-0.2c1.9-3.6,3.5-6.8,5.2-10
		c56.5-103.8,113-207.6,169.4-311.5c2.3-4.2,4.8-5.8,9.6-5.8c37.7,0.2,75.3,0.2,113,0c3.9,0,5.9,1.3,7.7,4.6
		c57.7,106.2,115.4,212.3,173.2,318.5C1998.7,331.6,1999.2,332.8,2000.1,334.7z M1820.3,206.9c-21.1-40.1-41.8-79.3-63-119.6
		c-21.2,40.3-41.9,79.6-63,119.6C1736.6,206.9,1777.9,206.9,1820.3,206.9z"/>
	<path class="st0" d="M1378.9,334.7c-1.3,0-2.5,0-3.8,0c-43.8,0-87.7,0-131.5-0.1c-2.3,0-5.2-1.1-6.9-2.7
		c-59.4-55.1-118.6-110.3-178-165.4c-0.7-0.7-1.7-1.1-4.2-2.6c2.4-1.4,3.8-1.8,4.7-2.7C1113.6,111,1168,60.8,1222.4,10.8
		c1.9-1.7,4.9-3.2,7.4-3.2c41-0.2,82-0.1,123-0.1c1,0,1.9,0.1,4.6,0.2c-60.1,51.4-119.2,101.9-178.7,152.8
		c67.1,57.9,133.8,115.5,200.5,173C1379.1,334,1379,334.4,1378.9,334.7z"/>
	<path class="st0" d="M955.5,7.7c1.7-0.1,3.4-0.3,5-0.3c29.7,0,59.3,0.1,89-0.1c4.3,0,5.8,1,5.7,5.5c-0.1,105.5-0.1,210.9-0.1,316.4
		c0,1.6-0.2,3.3-0.3,5.2c-33.2,0-66.1,0-99.3,0C955.5,225.6,955.5,116.9,955.5,7.7z"/>
	<path class="st0" d="M1400.5,7.7c1.7-0.1,3.4-0.3,5-0.3c29.7,0,59.3,0.1,89-0.1c4.3,0,5.7,1,5.7,5.5
		c-0.1,105.5-0.1,210.9-0.1,316.4c0,1.6-0.2,3.3-0.3,5.2c-33.2,0-66.1,0-99.3,0C1400.5,225.6,1400.5,116.9,1400.5,7.7z"/>
</g>
</svg>
