<?xml version="1.0" encoding="utf-8"?>
<!-- Generator: Adobe Illustrator 21.1.0, SVG Export Plug-In . SVG Version: 6.00 Build 0)  -->
<svg version="1.1" id="Layer_1" xmlns="http://www.w3.org/2000/svg" xmlns:xlink="http://www.w3.org/1999/xlink" x="0px" y="0px"
	 viewBox="0 0 471 71" style="enable-background:new 0 0 471 71;" xml:space="preserve">
<style type="text/css">
	.st0{stroke:#FFFFFF;stroke-miterlimit:10;}
</style>
<rect x="0.5" y="60.5" class="st0" width="10" height="10"/>
<rect x="0.5" y="50.5" class="st0" width="10" height="10"/>
<rect x="0.5" y="40.5" class="st0" width="10" height="10"/>
<rect x="0.5" y="30.5" class="st0" width="10" height="10"/>
<rect x="0.5" y="20.5" class="st0" width="10" height="10"/>
<rect x="0.5" y="10.5" class="st0" width="10" height="10"/>
<rect x="40.5" y="60.5" class="st0" width="10" height="10"/>
<rect x="40.5" y="50.5" class="st0" width="10" height="10"/>
<rect x="40.5" y="40.5" class="st0" width="10" height="10"/>
<rect x="40.5" y="30.5" class="st0" width="10" height="10"/>
<rect x="40.5" y="20.5" class="st0" width="10" height="10"/>
<rect x="40.5" y="10.5" class="st0" width="10" height="10"/>
<rect x="20.5" y="0.5" class="st0" width="10" height="10"/>
<rect x="30.5" y="0.5" class="st0" width="10" height="10"/>
<rect x="30.5" y="30.5" class="st0" width="10" height="10"/>
<rect x="20.5" y="30.5" class="st0" width="10" height="10"/>
<rect x="60.5" y="60.5" class="st0" width="10" height="10"/>
<rect x="60.5" y="50.5" class="st0" width="10" height="10"/>
<rect x="60.5" y="40.5" class="st0" width="10" height="10"/>
<rect x="60.5" y="30.5" class="st0" width="10" height="10"/>
<rect x="60.5" y="20.5" class="st0" width="10" height="10"/>
<rect x="60.5" y="10.5" class="st0" width="10" height="10"/>
<rect x="70.5" y="10.5" class="st0" width="10" height="10"/>
<rect x="100.5" y="0.5" class="st0" width="10" height="10"/>
<rect x="100.5" y="50.5" class="st0" width="10" height="10"/>
<rect x="100.5" y="40.5" class="st0" width="10" height="10"/>
<rect x="100.5" y="30.5" class="st0" width="10" height="10"/>
<rect x="100.5" y="20.5" class="st0" width="10" height="10"/>
<rect x="100.5" y="10.5" class="st0" width="10" height="10"/>
<rect x="10.5" y="30.5" class="st0" width="10" height="10"/>
<rect x="10.5" y="0.5" class="st0" width="10" height="10"/>
<rect x="90.5" y="50.5" class="st0" width="10" height="10"/>
<rect x="80.5" y="40.5" class="st0" width="10" height="10"/>
<rect x="80.5" y="30.5" class="st0" width="10" height="10"/>
<rect x="80.5" y="20.5" class="st0" width="10" height="10"/>
<rect x="120.5" y="60.5" class="st0" width="10" height="10"/>
<rect x="120.5" y="50.5" class="st0" width="10" height="10"/>
<rect x="120.5" y="40.5" class="st0" width="10" height="10"/>
<rect x="120.5" y="30.5" class="st0" width="10" height="10"/>
<rect x="120.5" y="20.5" class="st0" width="10" height="10"/>
<rect x="120.5" y="10.5" class="st0" width="10" height="10"/>
<rect x="160.5" y="60.5" class="st0" width="10" height="10"/>
<rect x="160.5" y="50.5" class="st0" width="10" height="10"/>
<rect x="160.5" y="40.5" class="st0" width="10" height="10"/>
<rect x="160.5" y="30.5" class="st0" width="10" height="10"/>
<rect x="160.5" y="20.5" class="st0" width="10" height="10"/>
<rect x="160.5" y="10.5" class="st0" width="10" height="10"/>
<rect x="140.5" y="0.5" class="st0" width="10" height="10"/>
<rect x="150.5" y="0.5" class="st0" width="10" height="10"/>
<rect x="150.5" y="30.5" class="st0" width="10" height="10"/>
<rect x="140.5" y="30.5" class="st0" width="10" height="10"/>
<rect x="130.5" y="30.5" class="st0" width="10" height="10"/>
<rect x="130.5" y="0.5" class="st0" width="10" height="10"/>
<rect x="180.5" y="50.5" class="st0" width="10" height="10"/>
<rect x="180.5" y="40.5" class="st0" width="10" height="10"/>
<rect x="180.5" y="30.5" class="st0" width="10" height="10"/>
<rect x="180.5" y="20.5" class="st0" width="10" height="10"/>
<rect x="180.5" y="10.5" class="st0" width="10" height="10"/>
<rect x="220.5" y="10.5" class="st0" width="10" height="10"/>
<rect x="210.5" y="0.5" class="st0" width="10" height="10"/>
<rect x="200.5" y="0.5" class="st0" width="10" height="10"/>
<rect x="190.5" y="0.5" class="st0" width="10" height="10"/>
<rect x="210.5" y="60.5" class="st0" width="10" height="10"/>
<rect x="200.5" y="60.5" class="st0" width="10" height="10"/>
<rect x="190.5" y="60.5" class="st0" width="10" height="10"/>
<rect x="220.5" y="50.5" class="st0" width="10" height="10"/>
<rect x="240.5" y="50.5" class="st0" width="10" height="10"/>
<rect x="240.5" y="40.5" class="st0" width="10" height="10"/>
<rect x="240.5" y="30.5" class="st0" width="10" height="10"/>
<rect x="240.5" y="20.5" class="st0" width="10" height="10"/>
<rect x="240.5" y="10.5" class="st0" width="10" height="10"/>
<rect x="280.5" y="10.5" class="st0" width="10" height="10"/>
<rect x="270.5" y="0.5" class="st0" width="10" height="10"/>
<rect x="260.5" y="0.5" class="st0" width="10" height="10"/>
<rect x="250.5" y="0.5" class="st0" width="10" height="10"/>
<rect x="270.5" y="60.5" class="st0" width="10" height="10"/>
<rect x="260.5" y="60.5" class="st0" width="10" height="10"/>
<rect x="250.5" y="60.5" class="st0" width="10" height="10"/>
<rect x="280.5" y="50.5" class="st0" width="10" height="10"/>
<rect x="280.5" y="40.5" class="st0" width="10" height="10"/>
<rect x="280.5" y="30.5" class="st0" width="10" height="10"/>
<rect x="280.5" y="20.5" class="st0" width="10" height="10"/>
<rect x="300.5" y="60.5" class="st0" width="10" height="10"/>
<rect x="300.5" y="50.5" class="st0" width="10" height="10"/>
<rect x="300.5" y="40.5" class="st0" width="10" height="10"/>
<rect x="300.5" y="30.5" class="st0" width="10" height="10"/>
<rect x="300.5" y="20.5" class="st0" width="10" height="10"/>
<rect x="300.5" y="10.5" class="st0" width="10" height="10"/>
<rect x="340.5" y="0.5" class="st0" width="10" height="10"/>
<rect x="340.5" y="50.5" class="st0" width="10" height="10"/>
<rect x="340.5" y="40.5" class="st0" width="10" height="10"/>
<rect x="340.5" y="30.5" class="st0" width="10" height="10"/>
<rect x="340.5" y="20.5" class="st0" width="10" height="10"/>
<rect x="340.5" y="10.5" class="st0" width="10" height="10"/>
<rect x="310.5" y="10.5" class="st0" width="10" height="10"/>
<rect x="330.5" y="50.5" class="st0" width="10" height="10"/>
<rect x="320.5" y="40.5" class="st0" width="10" height="10"/>
<rect x="320.5" y="30.5" class="st0" width="10" height="10"/>
<rect x="320.5" y="20.5" class="st0" width="10" height="10"/>
<rect x="360.5" y="60.5" class="st0" width="10" height="10"/>
<rect x="360.5" y="50.5" class="st0" width="10" height="10"/>
<rect x="360.5" y="40.5" class="st0" width="10" height="10"/>
<rect x="360.5" y="30.5" class="st0" width="10" height="10"/>
<rect x="360.5" y="20.5" class="st0" width="10" height="10"/>
<rect x="360.5" y="10.5" class="st0" width="10" height="10"/>
<rect x="360.5" y="0.5" class="st0" width="10" height="10"/>
<rect x="400.5" y="10.5" class="st0" width="10" height="10"/>
<rect x="390.5" y="0.5" class="st0" width="10" height="10"/>
<rect x="380.5" y="0.5" class="st0" width="10" height="10"/>
<rect x="370.5" y="0.5" class="st0" width="10" height="10"/>
<rect x="390.5" y="60.5" class="st0" width="10" height="10"/>
<rect x="380.5" y="60.5" class="st0" width="10" height="10"/>
<rect x="370.5" y="60.5" class="st0" width="10" height="10"/>
<rect x="400.5" y="50.5" class="st0" width="10" height="10"/>
<rect x="400.5" y="40.5" class="st0" width="10" height="10"/>
<rect x="400.5" y="30.5" class="st0" width="10" height="10"/>
<rect x="400.5" y="20.5" class="st0" width="10" height="10"/>
<rect x="420.5" y="60.5" class="st0" width="10" height="10"/>
<rect x="420.5" y="50.5" class="st0" width="10" height="10"/>
<rect x="420.5" y="40.5" class="st0" width="10" height="10"/>
<rect x="420.5" y="30.5" class="st0" width="10" height="10"/>
<rect x="420.5" y="20.5" class="st0" width="10" height="10"/>
<rect x="420.5" y="10.5" class="st0" width="10" height="10"/>
<rect x="460.5" y="60.5" class="st0" width="10" height="10"/>
<rect x="460.5" y="50.5" class="st0" width="10" height="10"/>
<rect x="460.5" y="40.5" class="st0" width="10" height="10"/>
<rect x="460.5" y="30.5" class="st0" width="10" height="10"/>
<rect x="460.5" y="20.5" class="st0" width="10" height="10"/>
<rect x="460.5" y="10.5" class="st0" width="10" height="10"/>
<rect x="440.5" y="0.5" class="st0" width="10" height="10"/>
<rect x="450.5" y="0.5" class="st0" width="10" height="10"/>
<rect x="450.5" y="30.5" class="st0" width="10" height="10"/>
<rect x="440.5" y="30.5" class="st0" width="10" height="10"/>
<rect x="430.5" y="30.5" class="st0" width="10" height="10"/>
<rect x="430.5" y="0.5" class="st0" width="10" height="10"/>
<rect x="60.5" y="0.5" class="st0" width="10" height="10"/>
<rect x="100.5" y="60.5" class="st0" width="10" height="10"/>
<rect x="300.5" y="0.5" class="st0" width="10" height="10"/>
<rect x="340.5" y="60.5" class="st0" width="10" height="10"/>
</svg>
