<?xml version="1.0" encoding="utf-8"?>
<!-- Generator: Adobe Illustrator 21.1.0, SVG Export Plug-In . SVG Version: 6.00 Build 0)  -->
<svg version="1.1" id="Layer_1" xmlns="http://www.w3.org/2000/svg" xmlns:xlink="http://www.w3.org/1999/xlink" x="0px" y="0px"
	 viewBox="0 0 295 72" style="enable-background:new 0 0 295 72;" xml:space="preserve">
<style type="text/css">
	.st0{stroke:#FFFFFF;stroke-miterlimit:10;}
</style>
<rect x="122.5" y="61.5" class="st0" width="10" height="10"/>
<rect x="122.5" y="51.5" class="st0" width="10" height="10"/>
<rect x="122.5" y="41.5" class="st0" width="10" height="10"/>
<rect x="122.5" y="31.5" class="st0" width="10" height="10"/>
<rect x="122.5" y="21.5" class="st0" width="10" height="10"/>
<rect x="122.5" y="11.5" class="st0" width="10" height="10"/>
<rect x="162.5" y="61.5" class="st0" width="10" height="10"/>
<rect x="162.5" y="51.5" class="st0" width="10" height="10"/>
<rect x="162.5" y="41.5" class="st0" width="10" height="10"/>
<rect x="162.5" y="31.5" class="st0" width="10" height="10"/>
<rect x="162.5" y="21.5" class="st0" width="10" height="10"/>
<rect x="162.5" y="11.5" class="st0" width="10" height="10"/>
<rect x="142.5" y="1.5" class="st0" width="10" height="10"/>
<rect x="152.5" y="1.5" class="st0" width="10" height="10"/>
<rect x="152.5" y="31.5" class="st0" width="10" height="10"/>
<rect x="142.5" y="31.5" class="st0" width="10" height="10"/>
<rect x="132.5" y="31.5" class="st0" width="10" height="10"/>
<rect x="132.5" y="1.5" class="st0" width="10" height="10"/>
<rect x="40.5" y="41.5" class="st0" width="10" height="10"/>
<rect x="40.5" y="51.5" class="st0" width="10" height="10"/>
<rect x="0.5" y="21.5" class="st0" width="10" height="10"/>
<rect x="0.5" y="11.5" class="st0" width="10" height="10"/>
<rect x="40.5" y="1.5" class="st0" width="10" height="10"/>
<rect x="30.5" y="1.5" class="st0" width="10" height="10"/>
<rect x="20.5" y="1.5" class="st0" width="10" height="10"/>
<rect x="10.5" y="1.5" class="st0" width="10" height="10"/>
<rect x="20.5" y="31.5" class="st0" width="10" height="10"/>
<rect x="10.5" y="31.5" class="st0" width="10" height="10"/>
<rect x="30.5" y="31.5" class="st0" width="10" height="10"/>
<rect x="80.5" y="61.5" class="st0" width="10" height="10"/>
<rect x="80.5" y="51.5" class="st0" width="10" height="10"/>
<rect x="80.5" y="41.5" class="st0" width="10" height="10"/>
<rect x="80.5" y="11.5" class="st0" width="10" height="10"/>
<rect x="80.5" y="21.5" class="st0" width="10" height="10"/>
<rect x="80.5" y="31.5" class="st0" width="10" height="10"/>
<rect x="80.5" y="1.5" class="st0" width="10" height="10"/>
<rect x="0.5" y="61.5" class="st0" width="10" height="10"/>
<rect x="20.5" y="61.5" class="st0" width="10" height="10"/>
<rect x="10.5" y="61.5" class="st0" width="10" height="10"/>
<rect x="30.5" y="61.5" class="st0" width="10" height="10"/>
<rect x="70.5" y="1.5" class="st0" width="10" height="10"/>
<rect x="80.5" y="1.5" class="st0" width="10" height="10"/>
<rect x="60.5" y="1.5" class="st0" width="10" height="10"/>
<rect x="101.5" y="1.5" class="st0" width="10" height="10"/>
<rect x="91.5" y="1.5" class="st0" width="10" height="10"/>
<rect x="182.5" y="60.5" class="st0" width="10" height="10"/>
<rect x="182.5" y="50.5" class="st0" width="10" height="10"/>
<rect x="182.5" y="40.5" class="st0" width="10" height="10"/>
<rect x="182.5" y="30.5" class="st0" width="10" height="10"/>
<rect x="182.5" y="20.5" class="st0" width="10" height="10"/>
<rect x="182.5" y="10.5" class="st0" width="10" height="10"/>
<rect x="202.5" y="41.5" class="st0" width="10" height="10"/>
<rect x="212.5" y="50.5" class="st0" width="10" height="10"/>
<rect x="222.5" y="20.5" class="st0" width="10" height="10"/>
<rect x="222.5" y="10.5" class="st0" width="10" height="10"/>
<rect x="202.5" y="0.5" class="st0" width="10" height="10"/>
<rect x="212.5" y="0.5" class="st0" width="10" height="10"/>
<rect x="212.5" y="30.5" class="st0" width="10" height="10"/>
<rect x="202.5" y="30.5" class="st0" width="10" height="10"/>
<rect x="192.5" y="30.5" class="st0" width="10" height="10"/>
<rect x="192.5" y="0.5" class="st0" width="10" height="10"/>
<rect x="221.5" y="60.5" class="st0" width="10" height="10"/>
<rect x="263.5" y="60.5" class="st0" width="10" height="10"/>
<rect x="263.5" y="50.5" class="st0" width="10" height="10"/>
<rect x="263.5" y="40.5" class="st0" width="10" height="10"/>
<rect x="263.5" y="10.5" class="st0" width="10" height="10"/>
<rect x="263.5" y="20.5" class="st0" width="10" height="10"/>
<rect x="263.5" y="30.5" class="st0" width="10" height="10"/>
<rect x="263.5" y="0.5" class="st0" width="10" height="10"/>
<rect x="253.5" y="0.5" class="st0" width="10" height="10"/>
<rect x="263.5" y="0.5" class="st0" width="10" height="10"/>
<rect x="243.5" y="0.5" class="st0" width="10" height="10"/>
<rect x="284.5" y="0.5" class="st0" width="10" height="10"/>
<rect x="274.5" y="0.5" class="st0" width="10" height="10"/>
</svg>
