<?xml version="1.0" encoding="utf-8"?>
<!-- Generator: Adobe Illustrator 21.1.0, SVG Export Plug-In . SVG Version: 6.00 Build 0)  -->
<svg version="1.1" id="Layer_1" xmlns="http://www.w3.org/2000/svg" xmlns:xlink="http://www.w3.org/1999/xlink" x="0px" y="0px"
	 viewBox="0 0 231 72.4" style="enable-background:new 0 0 231 72.4;" xml:space="preserve">
<style type="text/css">
	.st0{stroke:#FFFFFF;stroke-miterlimit:10;}
</style>
<rect x="0.5" y="81.9" class="st0" width="10" height="10"/>
<rect x="40.5" y="81.9" class="st0" width="10" height="10"/>
<rect x="30.5" y="81.9" class="st0" width="10" height="10"/>
<rect x="20.5" y="81.9" class="st0" width="10" height="10"/>
<rect x="10.5" y="81.9" class="st0" width="10" height="10"/>
<rect x="50.5" y="81.9" class="st0" width="10" height="10"/>
<rect x="90.5" y="81.9" class="st0" width="10" height="10"/>
<rect x="80.5" y="81.9" class="st0" width="10" height="10"/>
<rect x="70.5" y="81.9" class="st0" width="10" height="10"/>
<rect x="60.5" y="81.9" class="st0" width="10" height="10"/>
<rect x="100.5" y="81.9" class="st0" width="10" height="10"/>
<rect x="140.5" y="81.9" class="st0" width="10" height="10"/>
<rect x="130.5" y="81.9" class="st0" width="10" height="10"/>
<rect x="120.5" y="81.9" class="st0" width="10" height="10"/>
<rect x="110.5" y="81.9" class="st0" width="10" height="10"/>
<rect x="150.5" y="81.9" class="st0" width="10" height="10"/>
<rect x="190.5" y="81.9" class="st0" width="10" height="10"/>
<rect x="180.5" y="81.9" class="st0" width="10" height="10"/>
<rect x="170.5" y="81.9" class="st0" width="10" height="10"/>
<rect x="160.5" y="81.9" class="st0" width="10" height="10"/>
<rect x="-9.5" y="81.9" class="st0" width="10" height="10"/>
<rect x="-19.5" y="81.9" class="st0" width="10" height="10"/>
<rect x="230.5" y="81.9" class="st0" width="10" height="10"/>
<rect x="220.5" y="81.9" class="st0" width="10" height="10"/>
<rect x="210.5" y="81.9" class="st0" width="10" height="10"/>
<rect x="200.5" y="81.9" class="st0" width="10" height="10"/>
<rect x="240.5" y="81.9" class="st0" width="10" height="10"/>
<rect x="0.5" y="-18.1" class="st0" width="10" height="10"/>
<rect x="40.5" y="-18.1" class="st0" width="10" height="10"/>
<rect x="30.5" y="-18.1" class="st0" width="10" height="10"/>
<rect x="20.5" y="-18.1" class="st0" width="10" height="10"/>
<rect x="10.5" y="-18.1" class="st0" width="10" height="10"/>
<rect x="50.5" y="-18.1" class="st0" width="10" height="10"/>
<rect x="90.5" y="-18.1" class="st0" width="10" height="10"/>
<rect x="80.5" y="-18.1" class="st0" width="10" height="10"/>
<rect x="70.5" y="-18.1" class="st0" width="10" height="10"/>
<rect x="60.5" y="-18.1" class="st0" width="10" height="10"/>
<rect x="100.5" y="-18.1" class="st0" width="10" height="10"/>
<rect x="140.5" y="-18.1" class="st0" width="10" height="10"/>
<rect x="130.5" y="-18.1" class="st0" width="10" height="10"/>
<rect x="120.5" y="-18.1" class="st0" width="10" height="10"/>
<rect x="110.5" y="-18.1" class="st0" width="10" height="10"/>
<rect x="150.5" y="-18.1" class="st0" width="10" height="10"/>
<rect x="190.5" y="-18.1" class="st0" width="10" height="10"/>
<rect x="180.5" y="-18.1" class="st0" width="10" height="10"/>
<rect x="170.5" y="-18.1" class="st0" width="10" height="10"/>
<rect x="160.5" y="-18.1" class="st0" width="10" height="10"/>
<rect x="-9.5" y="-18.1" class="st0" width="10" height="10"/>
<rect x="-19.5" y="-18.1" class="st0" width="10" height="10"/>
<rect x="230.5" y="-18.1" class="st0" width="10" height="10"/>
<rect x="220.5" y="-18.1" class="st0" width="10" height="10"/>
<rect x="210.5" y="-18.1" class="st0" width="10" height="10"/>
<rect x="200.5" y="-18.1" class="st0" width="10" height="10"/>
<rect x="240.5" y="-18.1" class="st0" width="10" height="10"/>
<rect x="-19.5" y="71.9" class="st0" width="10" height="10"/>
<rect x="-19.5" y="61.9" class="st0" width="10" height="10"/>
<rect x="-19.5" y="51.9" class="st0" width="10" height="10"/>
<rect x="-19.5" y="41.9" class="st0" width="10" height="10"/>
<rect x="-19.5" y="31.9" class="st0" width="10" height="10"/>
<rect x="-19.5" y="21.9" class="st0" width="10" height="10"/>
<rect x="-19.5" y="11.9" class="st0" width="10" height="10"/>
<rect x="-19.5" y="1.9" class="st0" width="10" height="10"/>
<rect x="-19.5" y="-8.1" class="st0" width="10" height="10"/>
<rect x="122.5" y="61.9" class="st0" width="10" height="10"/>
<rect x="122.5" y="51.9" class="st0" width="10" height="10"/>
<rect x="122.5" y="41.9" class="st0" width="10" height="10"/>
<rect x="122.5" y="31.9" class="st0" width="10" height="10"/>
<rect x="122.5" y="21.9" class="st0" width="10" height="10"/>
<rect x="122.5" y="11.9" class="st0" width="10" height="10"/>
<rect x="162.5" y="61.9" class="st0" width="10" height="10"/>
<rect x="162.5" y="51.9" class="st0" width="10" height="10"/>
<rect x="162.5" y="41.9" class="st0" width="10" height="10"/>
<rect x="162.5" y="31.9" class="st0" width="10" height="10"/>
<rect x="162.5" y="21.9" class="st0" width="10" height="10"/>
<rect x="162.5" y="11.9" class="st0" width="10" height="10"/>
<rect x="142.5" y="1.9" class="st0" width="10" height="10"/>
<rect x="152.5" y="1.9" class="st0" width="10" height="10"/>
<rect x="152.5" y="31.9" class="st0" width="10" height="10"/>
<rect x="142.5" y="31.9" class="st0" width="10" height="10"/>
<rect x="132.5" y="31.9" class="st0" width="10" height="10"/>
<rect x="132.5" y="1.9" class="st0" width="10" height="10"/>
<rect x="40.5" y="41.9" class="st0" width="10" height="10"/>
<rect x="40.5" y="51.9" class="st0" width="10" height="10"/>
<rect x="0.5" y="21.9" class="st0" width="10" height="10"/>
<rect x="0.5" y="11.9" class="st0" width="10" height="10"/>
<rect x="40.5" y="1.9" class="st0" width="10" height="10"/>
<rect x="30.5" y="1.9" class="st0" width="10" height="10"/>
<rect x="20.5" y="1.9" class="st0" width="10" height="10"/>
<rect x="10.5" y="1.9" class="st0" width="10" height="10"/>
<rect x="20.5" y="31.9" class="st0" width="10" height="10"/>
<rect x="10.5" y="31.9" class="st0" width="10" height="10"/>
<rect x="30.5" y="31.9" class="st0" width="10" height="10"/>
<rect x="80.5" y="61.9" class="st0" width="10" height="10"/>
<rect x="80.5" y="51.9" class="st0" width="10" height="10"/>
<rect x="80.5" y="41.9" class="st0" width="10" height="10"/>
<rect x="80.5" y="11.9" class="st0" width="10" height="10"/>
<rect x="80.5" y="21.9" class="st0" width="10" height="10"/>
<rect x="80.5" y="31.9" class="st0" width="10" height="10"/>
<rect x="80.5" y="1.9" class="st0" width="10" height="10"/>
<rect x="0.5" y="61.9" class="st0" width="10" height="10"/>
<rect x="20.5" y="61.9" class="st0" width="10" height="10"/>
<rect x="10.5" y="61.9" class="st0" width="10" height="10"/>
<rect x="30.5" y="61.9" class="st0" width="10" height="10"/>
<rect x="70.5" y="1.9" class="st0" width="10" height="10"/>
<rect x="80.5" y="1.9" class="st0" width="10" height="10"/>
<rect x="60.5" y="1.9" class="st0" width="10" height="10"/>
<rect x="101.5" y="1.9" class="st0" width="10" height="10"/>
<rect x="91.5" y="1.9" class="st0" width="10" height="10"/>
<rect x="182.5" y="60.9" class="st0" width="10" height="10"/>
<rect x="182.5" y="50.9" class="st0" width="10" height="10"/>
<rect x="182.5" y="40.9" class="st0" width="10" height="10"/>
<rect x="182.5" y="30.9" class="st0" width="10" height="10"/>
<rect x="182.5" y="20.9" class="st0" width="10" height="10"/>
<rect x="182.5" y="10.9" class="st0" width="10" height="10"/>
<rect x="202.5" y="41.9" class="st0" width="10" height="10"/>
<rect x="212.5" y="50.9" class="st0" width="10" height="10"/>
<rect x="222.5" y="20.9" class="st0" width="10" height="10"/>
<rect x="222.5" y="10.9" class="st0" width="10" height="10"/>
<rect x="202.5" y="0.9" class="st0" width="10" height="10"/>
<rect x="212.5" y="0.9" class="st0" width="10" height="10"/>
<rect x="212.5" y="30.9" class="st0" width="10" height="10"/>
<rect x="202.5" y="30.9" class="st0" width="10" height="10"/>
<rect x="192.5" y="30.9" class="st0" width="10" height="10"/>
<rect x="192.5" y="0.9" class="st0" width="10" height="10"/>
<rect x="221.5" y="60.9" class="st0" width="10" height="10"/>
<rect x="263.5" y="60.9" class="st0" width="10" height="10"/>
<rect x="263.5" y="50.9" class="st0" width="10" height="10"/>
<rect x="263.5" y="40.9" class="st0" width="10" height="10"/>
<rect x="263.5" y="10.9" class="st0" width="10" height="10"/>
<rect x="263.5" y="20.9" class="st0" width="10" height="10"/>
<rect x="263.5" y="30.9" class="st0" width="10" height="10"/>
<rect x="263.5" y="0.9" class="st0" width="10" height="10"/>
<rect x="253.5" y="0.9" class="st0" width="10" height="10"/>
<rect x="263.5" y="0.9" class="st0" width="10" height="10"/>
<rect x="243.5" y="0.9" class="st0" width="10" height="10"/>
<rect x="273.5" y="0.9" class="st0" width="10" height="10"/>
<rect x="300.5" y="71.9" class="st0" width="10" height="10"/>
<rect x="300.5" y="61.9" class="st0" width="10" height="10"/>
<rect x="300.5" y="51.9" class="st0" width="10" height="10"/>
<rect x="300.5" y="41.9" class="st0" width="10" height="10"/>
<rect x="300.5" y="31.9" class="st0" width="10" height="10"/>
<rect x="300.5" y="21.9" class="st0" width="10" height="10"/>
<rect x="300.5" y="11.9" class="st0" width="10" height="10"/>
<rect x="300.5" y="1.9" class="st0" width="10" height="10"/>
<rect x="300.5" y="-8.1" class="st0" width="10" height="10"/>
<rect x="283.5" y="0.9" class="st0" width="10" height="10"/>
<rect x="270.5" y="-18.1" class="st0" width="10" height="10"/>
<rect x="300.5" y="-18.1" class="st0" width="10" height="10"/>
<rect x="290.5" y="-18.1" class="st0" width="10" height="10"/>
<rect x="280.5" y="-18.1" class="st0" width="10" height="10"/>
<rect x="260.5" y="-18.1" class="st0" width="10" height="10"/>
<rect x="250.5" y="-18.1" class="st0" width="10" height="10"/>
<rect x="260.5" y="81.9" class="st0" width="10" height="10"/>
<rect x="250.5" y="81.9" class="st0" width="10" height="10"/>
<rect x="300.5" y="81.9" class="st0" width="10" height="10"/>
<rect x="290.5" y="81.9" class="st0" width="10" height="10"/>
<rect x="280.5" y="81.9" class="st0" width="10" height="10"/>
<rect x="270.5" y="81.9" class="st0" width="10" height="10"/>
</svg>
