<?xml version="1.0" encoding="utf-8"?>
<!-- Generator: Adobe Illustrator 21.1.0, SVG Export Plug-In . SVG Version: 6.00 Build 0)  -->
<svg version="1.1" id="Layer_1" xmlns="http://www.w3.org/2000/svg" xmlns:xlink="http://www.w3.org/1999/xlink" x="0px" y="0px"
	 viewBox="0 0 231 72.4" style="enable-background:new 0 0 231 72.4;" xml:space="preserve">
<style type="text/css">
	.st0{stroke:#FFFFFF;stroke-miterlimit:10;}
</style>
<rect x="60" y="61.5" class="st0" width="10" height="10"/>
<rect x="60" y="51.5" class="st0" width="10" height="10"/>
<rect x="60" y="41.5" class="st0" width="10" height="10"/>
<rect x="60" y="31.5" class="st0" width="10" height="10"/>
<rect x="60" y="20.5" class="st0" width="10" height="10"/>
<rect x="60" y="11.5" class="st0" width="10" height="10"/>
<rect x="100" y="61.5" class="st0" width="10" height="10"/>
<rect x="100" y="51.5" class="st0" width="10" height="10"/>
<rect x="100" y="41.5" class="st0" width="10" height="10"/>
<rect x="100" y="31.5" class="st0" width="10" height="10"/>
<rect x="100" y="21.5" class="st0" width="10" height="10"/>
<rect x="100" y="11.5" class="st0" width="10" height="10"/>
<rect x="80" y="1.5" class="st0" width="10" height="10"/>
<rect x="90" y="1.5" class="st0" width="10" height="10"/>
<rect x="90" y="31.5" class="st0" width="10" height="10"/>
<rect x="80" y="31.5" class="st0" width="10" height="10"/>
<rect x="70" y="31.5" class="st0" width="10" height="10"/>
<rect x="70" y="1.5" class="st0" width="10" height="10"/>
<rect x="0.5" y="61.9" class="st0" width="10" height="10"/>
<rect x="0.5" y="51.9" class="st0" width="10" height="10"/>
<rect x="0.5" y="41.9" class="st0" width="10" height="10"/>
<rect x="0.5" y="31.9" class="st0" width="10" height="10"/>
<rect x="0.5" y="21.9" class="st0" width="10" height="10"/>
<rect x="0.5" y="11.9" class="st0" width="10" height="10"/>
<rect x="0.5" y="1.9" class="st0" width="10" height="10"/>
<rect x="154.5" y="195.9" class="st0" width="10" height="10"/>
<rect x="154.5" y="205.9" class="st0" width="10" height="10"/>
<rect x="114.5" y="175.9" class="st0" width="10" height="10"/>
<rect x="114.5" y="165.9" class="st0" width="10" height="10"/>
<rect x="154.5" y="155.9" class="st0" width="10" height="10"/>
<rect x="144.5" y="155.9" class="st0" width="10" height="10"/>
<rect x="134.5" y="155.9" class="st0" width="10" height="10"/>
<rect x="124.5" y="155.9" class="st0" width="10" height="10"/>
<rect x="134.5" y="185.9" class="st0" width="10" height="10"/>
<rect x="124.5" y="185.9" class="st0" width="10" height="10"/>
<rect x="144.5" y="185.9" class="st0" width="10" height="10"/>
<rect x="114.5" y="215.9" class="st0" width="10" height="10"/>
<rect x="134.5" y="215.9" class="st0" width="10" height="10"/>
<rect x="124.5" y="215.9" class="st0" width="10" height="10"/>
<rect x="144.5" y="215.9" class="st0" width="10" height="10"/>
<rect x="10.5" y="1.9" class="st0" width="10" height="10"/>
<rect x="40.5" y="1.9" class="st0" width="10" height="10"/>
<rect x="30.5" y="1.9" class="st0" width="10" height="10"/>
<rect x="20.5" y="1.9" class="st0" width="10" height="10"/>
<rect x="10.5" y="61.9" class="st0" width="10" height="10"/>
<rect x="40.5" y="61.9" class="st0" width="10" height="10"/>
<rect x="30.5" y="61.9" class="st0" width="10" height="10"/>
<rect x="20.5" y="61.9" class="st0" width="10" height="10"/>
<rect x="10.5" y="31.9" class="st0" width="10" height="10"/>
<rect x="30.5" y="31.9" class="st0" width="10" height="10"/>
<rect x="20.5" y="31.9" class="st0" width="10" height="10"/>
<rect x="160.5" y="41.9" class="st0" width="10" height="10"/>
<rect x="160.5" y="51.9" class="st0" width="10" height="10"/>
<rect x="120.5" y="21.9" class="st0" width="10" height="10"/>
<rect x="120.5" y="11.9" class="st0" width="10" height="10"/>
<rect x="160.5" y="1.9" class="st0" width="10" height="10"/>
<rect x="150.5" y="1.9" class="st0" width="10" height="10"/>
<rect x="140.5" y="1.9" class="st0" width="10" height="10"/>
<rect x="130.5" y="1.9" class="st0" width="10" height="10"/>
<rect x="140.5" y="31.9" class="st0" width="10" height="10"/>
<rect x="130.5" y="31.9" class="st0" width="10" height="10"/>
<rect x="150.5" y="31.9" class="st0" width="10" height="10"/>
<rect x="120.5" y="61.9" class="st0" width="10" height="10"/>
<rect x="140.5" y="61.9" class="st0" width="10" height="10"/>
<rect x="130.5" y="61.9" class="st0" width="10" height="10"/>
<rect x="150.5" y="61.9" class="st0" width="10" height="10"/>
<rect x="201" y="61.5" class="st0" width="10" height="10"/>
<rect x="201" y="51.5" class="st0" width="10" height="10"/>
<rect x="201" y="41.5" class="st0" width="10" height="10"/>
<rect x="201" y="31.5" class="st0" width="10" height="10"/>
</svg>
