<?xml version="1.0" encoding="utf-8"?>
<!-- Generator: Adobe Illustrator 21.1.0, SVG Export Plug-In . SVG Version: 6.00 Build 0)  -->
<svg version="1.1" id="Layer_1" xmlns="http://www.w3.org/2000/svg" xmlns:xlink="http://www.w3.org/1999/xlink" x="0px" y="0px"
	 viewBox="0 0 231 72.4" style="enable-background:new 0 0 231 72.4;" xml:space="preserve">
<style type="text/css">
	.st0{stroke:#FFFFFF;stroke-miterlimit:10;}
</style>
<rect x="0.5" y="81.9" class="st0" width="10" height="10"/>
<rect x="40.5" y="81.9" class="st0" width="10" height="10"/>
<rect x="30.5" y="81.9" class="st0" width="10" height="10"/>
<rect x="20.5" y="81.9" class="st0" width="10" height="10"/>
<rect x="10.5" y="81.9" class="st0" width="10" height="10"/>
<rect x="50.5" y="81.9" class="st0" width="10" height="10"/>
<rect x="90.5" y="81.9" class="st0" width="10" height="10"/>
<rect x="80.5" y="81.9" class="st0" width="10" height="10"/>
<rect x="70.5" y="81.9" class="st0" width="10" height="10"/>
<rect x="60.5" y="81.9" class="st0" width="10" height="10"/>
<rect x="100.5" y="81.9" class="st0" width="10" height="10"/>
<rect x="140.5" y="81.9" class="st0" width="10" height="10"/>
<rect x="130.5" y="81.9" class="st0" width="10" height="10"/>
<rect x="120.5" y="81.9" class="st0" width="10" height="10"/>
<rect x="110.5" y="81.9" class="st0" width="10" height="10"/>
<rect x="150.5" y="81.9" class="st0" width="10" height="10"/>
<rect x="190.5" y="81.9" class="st0" width="10" height="10"/>
<rect x="180.5" y="81.9" class="st0" width="10" height="10"/>
<rect x="170.5" y="81.9" class="st0" width="10" height="10"/>
<rect x="160.5" y="81.9" class="st0" width="10" height="10"/>
<rect x="-9.5" y="81.9" class="st0" width="10" height="10"/>
<rect x="-19.5" y="81.9" class="st0" width="10" height="10"/>
<rect x="230.5" y="81.9" class="st0" width="10" height="10"/>
<rect x="220.5" y="81.9" class="st0" width="10" height="10"/>
<rect x="210.5" y="81.9" class="st0" width="10" height="10"/>
<rect x="200.5" y="81.9" class="st0" width="10" height="10"/>
<rect x="240.5" y="81.9" class="st0" width="10" height="10"/>
<rect x="0.5" y="-18.1" class="st0" width="10" height="10"/>
<rect x="40.5" y="-18.1" class="st0" width="10" height="10"/>
<rect x="30.5" y="-18.1" class="st0" width="10" height="10"/>
<rect x="20.5" y="-18.1" class="st0" width="10" height="10"/>
<rect x="10.5" y="-18.1" class="st0" width="10" height="10"/>
<rect x="50.5" y="-18.1" class="st0" width="10" height="10"/>
<rect x="90.5" y="-18.1" class="st0" width="10" height="10"/>
<rect x="80.5" y="-18.1" class="st0" width="10" height="10"/>
<rect x="70.5" y="-18.1" class="st0" width="10" height="10"/>
<rect x="60.5" y="-18.1" class="st0" width="10" height="10"/>
<rect x="100.5" y="-18.1" class="st0" width="10" height="10"/>
<rect x="140.5" y="-18.1" class="st0" width="10" height="10"/>
<rect x="130.5" y="-18.1" class="st0" width="10" height="10"/>
<rect x="120.5" y="-18.1" class="st0" width="10" height="10"/>
<rect x="110.5" y="-18.1" class="st0" width="10" height="10"/>
<rect x="150.5" y="-18.1" class="st0" width="10" height="10"/>
<rect x="190.5" y="-18.1" class="st0" width="10" height="10"/>
<rect x="180.5" y="-18.1" class="st0" width="10" height="10"/>
<rect x="170.5" y="-18.1" class="st0" width="10" height="10"/>
<rect x="160.5" y="-18.1" class="st0" width="10" height="10"/>
<rect x="-9.5" y="-18.1" class="st0" width="10" height="10"/>
<rect x="-19.5" y="-18.1" class="st0" width="10" height="10"/>
<rect x="230.5" y="-18.1" class="st0" width="10" height="10"/>
<rect x="220.5" y="-18.1" class="st0" width="10" height="10"/>
<rect x="210.5" y="-18.1" class="st0" width="10" height="10"/>
<rect x="200.5" y="-18.1" class="st0" width="10" height="10"/>
<rect x="240.5" y="-18.1" class="st0" width="10" height="10"/>
<rect x="-19.5" y="71.9" class="st0" width="10" height="10"/>
<rect x="-19.5" y="61.9" class="st0" width="10" height="10"/>
<rect x="-19.5" y="51.9" class="st0" width="10" height="10"/>
<rect x="-19.5" y="41.9" class="st0" width="10" height="10"/>
<rect x="-19.5" y="31.9" class="st0" width="10" height="10"/>
<rect x="-19.5" y="21.9" class="st0" width="10" height="10"/>
<rect x="-19.5" y="11.9" class="st0" width="10" height="10"/>
<rect x="-19.5" y="1.9" class="st0" width="10" height="10"/>
<rect x="-19.5" y="-8.1" class="st0" width="10" height="10"/>
<rect x="240.5" y="71.9" class="st0" width="10" height="10"/>
<rect x="240.5" y="61.9" class="st0" width="10" height="10"/>
<rect x="240.5" y="51.9" class="st0" width="10" height="10"/>
<rect x="240.5" y="41.9" class="st0" width="10" height="10"/>
<rect x="240.5" y="31.9" class="st0" width="10" height="10"/>
<rect x="240.5" y="21.9" class="st0" width="10" height="10"/>
<rect x="240.5" y="11.9" class="st0" width="10" height="10"/>
<rect x="240.5" y="1.9" class="st0" width="10" height="10"/>
<rect x="240.5" y="-8.1" class="st0" width="10" height="10"/>
<rect x="60" y="61.5" class="st0" width="10" height="10"/>
<rect x="60" y="51.5" class="st0" width="10" height="10"/>
<rect x="60" y="41.5" class="st0" width="10" height="10"/>
<rect x="60" y="31.5" class="st0" width="10" height="10"/>
<rect x="60" y="20.5" class="st0" width="10" height="10"/>
<rect x="60" y="11.5" class="st0" width="10" height="10"/>
<rect x="100" y="61.5" class="st0" width="10" height="10"/>
<rect x="100" y="51.5" class="st0" width="10" height="10"/>
<rect x="100" y="41.5" class="st0" width="10" height="10"/>
<rect x="100" y="31.5" class="st0" width="10" height="10"/>
<rect x="100" y="21.5" class="st0" width="10" height="10"/>
<rect x="100" y="11.5" class="st0" width="10" height="10"/>
<rect x="80" y="1.5" class="st0" width="10" height="10"/>
<rect x="90" y="1.5" class="st0" width="10" height="10"/>
<rect x="90" y="31.5" class="st0" width="10" height="10"/>
<rect x="80" y="31.5" class="st0" width="10" height="10"/>
<rect x="70" y="31.5" class="st0" width="10" height="10"/>
<rect x="70" y="1.5" class="st0" width="10" height="10"/>
<rect x="0.5" y="61.9" class="st0" width="10" height="10"/>
<rect x="0.5" y="51.9" class="st0" width="10" height="10"/>
<rect x="0.5" y="41.9" class="st0" width="10" height="10"/>
<rect x="0.5" y="31.9" class="st0" width="10" height="10"/>
<rect x="0.5" y="21.9" class="st0" width="10" height="10"/>
<rect x="0.5" y="11.9" class="st0" width="10" height="10"/>
<rect x="0.5" y="1.9" class="st0" width="10" height="10"/>
<rect x="10.5" y="1.9" class="st0" width="10" height="10"/>
<rect x="40.5" y="1.9" class="st0" width="10" height="10"/>
<rect x="30.5" y="1.9" class="st0" width="10" height="10"/>
<rect x="20.5" y="1.9" class="st0" width="10" height="10"/>
<rect x="10.5" y="61.9" class="st0" width="10" height="10"/>
<rect x="40.5" y="61.9" class="st0" width="10" height="10"/>
<rect x="30.5" y="61.9" class="st0" width="10" height="10"/>
<rect x="20.5" y="61.9" class="st0" width="10" height="10"/>
<rect x="10.5" y="31.9" class="st0" width="10" height="10"/>
<rect x="30.5" y="31.9" class="st0" width="10" height="10"/>
<rect x="20.5" y="31.9" class="st0" width="10" height="10"/>
<rect x="160.5" y="41.9" class="st0" width="10" height="10"/>
<rect x="160.5" y="51.9" class="st0" width="10" height="10"/>
<rect x="120.5" y="21.9" class="st0" width="10" height="10"/>
<rect x="120.5" y="11.9" class="st0" width="10" height="10"/>
<rect x="160.5" y="1.9" class="st0" width="10" height="10"/>
<rect x="150.5" y="1.9" class="st0" width="10" height="10"/>
<rect x="140.5" y="1.9" class="st0" width="10" height="10"/>
<rect x="130.5" y="1.9" class="st0" width="10" height="10"/>
<rect x="140.5" y="31.9" class="st0" width="10" height="10"/>
<rect x="130.5" y="31.9" class="st0" width="10" height="10"/>
<rect x="150.5" y="31.9" class="st0" width="10" height="10"/>
<rect x="120.5" y="61.9" class="st0" width="10" height="10"/>
<rect x="140.5" y="61.9" class="st0" width="10" height="10"/>
<rect x="130.5" y="61.9" class="st0" width="10" height="10"/>
<rect x="150.5" y="61.9" class="st0" width="10" height="10"/>
<rect x="201" y="61.5" class="st0" width="10" height="10"/>
<rect x="201" y="51.5" class="st0" width="10" height="10"/>
<rect x="201" y="41.5" class="st0" width="10" height="10"/>
<rect x="201" y="31.5" class="st0" width="10" height="10"/>
<rect x="220.5" y="11.9" class="st0" width="10" height="10"/>
<rect x="220.5" y="1.9" class="st0" width="10" height="10"/>
<rect x="210.5" y="21.5" class="st0" width="10" height="10"/>
<rect x="191" y="21.5" class="st0" width="10" height="10"/>
<rect x="181" y="11.9" class="st0" width="10" height="10"/>
<rect x="181" y="1.9" class="st0" width="10" height="10"/>
</svg>
